
        <svg xmlns="http://www.w3.org/2000/svg" xmlns:xlink="http://www.w3.org/1999/xlink" version="1.1" width="3162.3616236162356" height="656.6920597750037" viewBox="0 0 3162.3616236162356 656.6920597750037">
			
			<g transform="scale(8.118081180811808) translate(10, 10)">
				<defs id="SvgjsDefs1001"/><g id="SvgjsG1007" featureKey="symbolFeature-0" transform="matrix(1.1143291636512098,0,0,1.1143291636512098,-7.989740188395743,-25.269642495128426)" fill="#fff"><path xmlns="http://www.w3.org/2000/svg" d="M92.756,22.677H7.17c3.893,9.105,9.007,17.26,15.379,24.476c0,0,0.002,0.002,0.003,0.002v-0.003  c1.039,1.173,2.122,2.343,3.245,3.486v0.001l0.003-0.001c3.675,3.741,7.72,7.203,12.16,10.41v-0.001  c1.235,0.888,2.534,1.778,3.857,2.645c0.002,0.001,0.002,0.002,0.003,0.003v-0.003c5.482,3.619,11.488,6.807,18.027,9.632  c3.327,1.435,6.834,2.755,10.458,3.998c1.398-10.04,5.724-20.903,12.936-32.674c-1.482-1.778-2.356-3.928-2.542-6.36  c-0.017-0.213-0.026-0.431-0.026-0.645c0.003-2.586,1.256-5.105,3.497-7.613c1.812-1.999,4.696-4.391,8.661-7.291  C92.805,22.719,92.78,22.698,92.756,22.677z M27.356,40.15c-0.359,0-0.7-0.177-0.903-0.479l-4.226-6.218  c-0.228-0.336-0.253-0.771-0.062-1.132c0.193-0.36,0.569-0.581,0.977-0.578l49.77,0.417c0.605,0.006,1.089,0.499,1.083,1.106  c-0.003,0.362-0.183,0.681-0.456,0.879c-0.006,0.005-0.012,0.009-0.017,0.012c-0.001,0.002-0.005,0.003-0.005,0.005  c-0.006,0.003-0.009,0.006-0.015,0.007c-0.003,0.005-0.009,0.006-0.012,0.009c-0.003,0.003-0.003,0.003-0.006,0.003  c-0.131,0.084-0.281,0.14-0.444,0.161l-45.543,5.798C27.448,40.147,27.402,40.15,27.356,40.15z M39.072,52.891  c-0.141,0.062-0.289,0.091-0.438,0.091c-0.342,0-0.682-0.161-0.896-0.461l-4.486-6.354c-0.219-0.309-0.265-0.71-0.116-1.062  c0.152-0.35,0.475-0.596,0.849-0.651l38.053-5.627c0.557-0.084,1.086,0.272,1.223,0.818c0.135,0.543-0.164,1.106-0.695,1.295  L39.072,52.891z M75.188,44.927L54.354,63.815c-0.207,0.205-0.484,0.312-0.767,0.312c-0.164,0-0.332-0.037-0.484-0.113  c-0.003,0-0.003-0.002-0.003-0.002c-0.015-0.008-0.027-0.014-0.04-0.023c-0.006-0.002-0.009-0.005-0.014-0.006  c-0.008-0.005-0.014-0.006-0.018-0.011c-0.008-0.006-0.018-0.011-0.029-0.015c-0.003-0.005-0.007-0.008-0.011-0.011  c-0.011-0.005-0.017-0.009-0.024-0.014c-0.002-0.003-0.008-0.006-0.011-0.009c-0.009-0.005-0.018-0.012-0.027-0.02  c-0.002-0.002-0.005-0.003-0.006-0.006l-7.335-5.65c-0.301-0.233-0.461-0.605-0.418-0.984c0.038-0.379,0.278-0.71,0.621-0.872  l28.199-13.267c0.491-0.233,1.078-0.07,1.38,0.382C75.668,43.959,75.59,44.562,75.188,44.927z"/></g><g id="SvgjsG1008" featureKey="nameFeature-0" transform="matrix(0.7949576665876997,0,0,0.7949576665876997,115.00000303252284,-7.507692206452699)" fill="#fff"><path d="M23.48 27.560000000000002 c-15.88 0 -16.12 -0.04 -16.32 -0.04 l-0.08 0 c-4 -0.32 -7.08 -3.72 -7.08 -7.76 c0 -4.32 3.48 -7.8 7.8 -7.8 l16.8 0 c3.36 0 6.08 2.72 6.08 6.12 l0 3.24 l-22.76 0 l-0.04 0 l-0.04 0 c-0.92 -0.04 -1.52 -0.72 -1.52 -1.56 s0.64 -1.52 1.48 -1.56 l19.76 0 l0 -0.08 c0 -1.72 -1.32 -3.04 -3.04 -3.04 l-16.72 0 c-2.56 0 -4.68 2.08 -4.68 4.68 c0 2.4 1.8 4.32 4.08 4.64 c15.96 0 16.12 0.04 16.4 0.04 c4 0.32 7.08 3.76 7.08 7.76 c0 4.32 -3.48 7.8 -7.76 7.8 l-16.84 0 c-3.36 0 -6.08 -2.72 -6.08 -6.08 l0 -3.28 l22.92 0 c1.96 0.12 1.96 3 0 3.12 l-19.8 0 l0 0.08 c0 1.72 1.32 3.04 3.04 3.04 l16.76 0 c2.52 0 4.68 -2 4.68 -4.68 c0 -2.4 -1.8 -4.32 -4.12 -4.64 z M36.28 21.32 l0 -9.36 l30.6 0 l0 9.36 l-7.52 0 l0 -3.12 l4.4 0 l0 -3.12 l-24.36 0 l0 3.12 l10.64 0 l-0.04 18.68 l3.12 0 l0 -18.68 l3.12 0 l0 21.8 l-9.36 0 l0 -18.68 l-10.6 0 z M81.84 30.64 l1.8 -3.12 l5.44 9.36 l3.6 0 c-0.8 -1.28 -8.4 -14.28 -9.04 -15.56 l-7.84 13.6 l-2.92 5.08 l-10.8 0 c0.6 -1 4.64 -8.04 8.52 -14.8 c2.28 -3.96 4.8 -8.4 7.64 -13.24 l3.6 0 l-7.44 12.88 l-6.92 12.04 l3.6 0 c4.92 -8.68 8 -13.8 12.56 -21.8 c0.28 0.48 14.36 24.88 14.44 24.92 l-10.8 0 z M134.44 40 l-10.8 0 l-3.64 -6.28 l-7 0 l0 6.28 l-9.32 0 l0 -15.6 l22.88 0.04 c2.6 0 4.68 -2.12 4.68 -4.68 c0 -2.6 -2.08 -4.68 -4.68 -4.68 l-19.76 0 l0 3.12 l19.76 0 c0.84 0.04 1.48 0.72 1.48 1.56 s-0.64 1.52 -1.48 1.56 l-0.04 0 l-0.04 0 l-22.8 0 l0 -9.36 l22.88 0 c4.32 0 7.8 3.48 7.8 7.8 c0 4.28 -3.48 7.8 -7.8 7.8 l-19.76 -0.04 l0 9.36 l3.12 0 l0 -6.28 l11.88 0 c1.28 2.32 3.44 5.88 3.64 6.28 l3.6 0 c-0.32 -0.44 -2.16 -3.72 -3.64 -6.28 l3.6 0 c1.32 2.28 2.64 4.64 3.72 6.4 z M170.64000000000001 11.96 l0 9.4 l-17.2 0 c-2.36 0.2 -4.16 2.24 -4.16 4.64 s1.8 4.36 4.16 4.64 l10.96 0 l0 3.12 l-10.96 0 c-4.04 -0.32 -7.24 -3.64 -7.24 -7.8 c0 -4 3.08 -7.4 7.08 -7.72 l14.24 0 l0 -3.16 l-14.08 0 l0 0.04 c-5.72 0.32 -10.28 5.04 -10.28 10.88 c0 5.8 4.56 10.56 10.28 10.88 l14.08 0 l0 -6.24 l3.12 0 l0 9.36 l-17.2 0 c-7.48 -0.32 -13.4 -6.48 -13.4 -14 c0 -7.56 5.92 -13.68 13.4 -14 z M195.12 27.84 l8.96 -15.88 l9.92 0 l0 28.04 l-9.36 0 l0 -10.48 l-5.96 10.48 l-7.16 0 l-9.08 -15.92 l0 -5.88 l10.92 18.68 l3.52 0 l10.88 -18.68 l0 18.68 l3.12 0 l0 -21.8 l-5 0 l-10.84 18.72 l-10.68 -18.72 l-5 0 l0 21.8 l3.08 0 l0 -5.88 l3.12 5.36 l0 3.64 l-9.32 0 l0 -28.04 l9.92 0 z M219.60000000000002 11.96 l17.2 0 c7.48 0.32 13.4 6.48 13.4 14 c0 7.56 -5.92 13.72 -13.4 14.04 l-17.2 0 l0 -21.8 l17.2 0 c4.04 0.32 7.24 3.64 7.24 7.8 c0 4 -3.08 7.44 -7.08 7.76 l-11.12 0 l0 -9.84 l3.12 0 l0 6.72 l7.84 -0.04 c2.36 -0.2 4.16 -2.24 4.16 -4.6 c0 -2.04 -1.28 -3.72 -3.08 -4.4 c-0.68 -0.28 -1.08 -0.28 -2.16 -0.28 l-13 0 l0 15.56 l14.08 0 c5.72 -0.32 10.28 -5.04 10.28 -10.92 c0 -5.8 -4.56 -10.56 -10.28 -10.88 l-17.2 0 l0 -3.12 z M258.92 30.6 c2.56 0 4.72 2.16 4.72 4.72 c0 2.6 -2.16 4.68 -4.72 4.68 c-2.6 0 -4.68 -2.08 -4.68 -4.68 c0 -2.56 2.08 -4.72 4.68 -4.72 z M258.92 36.88 c0.92 0 1.56 -0.72 1.56 -1.56 c0 -0.92 -0.64 -1.56 -1.56 -1.56 c-0.84 0 -1.56 0.64 -1.56 1.56 c0 0.84 0.72 1.56 1.56 1.56 z M289 30.64 l1.8 -3.12 l5.44 9.36 l3.6 0 c-0.8 -1.28 -8.4 -14.28 -9.04 -15.56 l-7.84 13.6 l-2.92 5.08 l-10.8 0 c0.6 -1 4.64 -8.04 8.52 -14.8 c2.28 -3.96 4.8 -8.4 7.64 -13.24 l3.6 0 l-7.44 12.88 l-6.92 12.04 l3.6 0 c4.92 -8.68 8 -13.8 12.56 -21.8 c0.28 0.48 14.36 24.88 14.44 24.92 l-10.8 0 z M320.20000000000005 40 l-9.36 0 l0 -28.04 l9.36 0 l0 21.8 l-3.12 0 l0 -18.68 l-3.12 0 l0 21.8 l6.24 0 l0 3.12 z"/></g><g id="SvgjsG1009" featureKey="sloganFeature-0" transform="matrix(1.0308651115020062,0,0,1.0308651115020062,114.2199369566937,37.97974759153075)" fill="#fff"><path d="M13.71 19.66 c0.07 0.2 -0.02 0.34 -0.24 0.34 l-2.74 0 c-0.16 0 -0.28 -0.06 -0.34 -0.24 l-0.64 -1.94 l-5.01 0 l-0.64 1.94 c-0.05 0.18 -0.18 0.24 -0.34 0.24 l-2.74 0 c-0.22 0 -0.31 -0.14 -0.24 -0.34 l4.9 -13.42 c0.06 -0.16 0.18 -0.24 0.34 -0.24 l2.4 0 c0.16 0 0.33 0.08 0.39 0.24 z M5.65 15.09 l3.2 0 l-1.6 -4.84 z M26.964 6 c0.18 0 0.3 0.12 0.3 0.3 l0 8.03 c0 4.09 -2.48 5.96 -5.94 5.96 c-3.44 0 -5.94 -1.87 -5.94 -5.96 l0 -8.03 c0 -0.18 0.12 -0.3 0.3 -0.3 l2.63 0 c0.18 0 0.3 0.12 0.3 0.3 l0 8.03 c0 1.75 1.02 2.85 2.71 2.85 c1.71 0 2.7 -1.1 2.7 -2.85 l0 -8.03 c0 -0.18 0.12 -0.3 0.3 -0.3 l2.64 0 z M39.878 6 c0.18 0 0.3 0.12 0.3 0.3 l0 2.24 c0 0.18 -0.12 0.3 -0.3 0.3 l-3.62 0 l0 10.86 c0 0.18 -0.12 0.3 -0.3 0.3 l-2.63 0 c-0.18 0 -0.3 -0.12 -0.3 -0.3 l0 -10.86 l-3.62 0 c-0.18 0 -0.3 -0.12 -0.3 -0.3 l0 -2.24 c0 -0.18 0.12 -0.3 0.3 -0.3 l10.47 0 z M49.182 20.26 c-3.96 0 -7.21 -3.2 -7.21 -7.2 c0 -4.02 3.25 -7.22 7.21 -7.22 c3.97 0 7.23 3.2 7.23 7.22 c0 4 -3.26 7.2 -7.23 7.2 z M49.182 17.13 c2.23 0 3.98 -1.79 3.98 -4.07 c0 -2.3 -1.75 -4.09 -3.98 -4.09 c-2.21 0 -3.96 1.79 -3.96 4.09 c0 2.28 1.75 4.07 3.96 4.07 z M73.496 6 c0.18 0 0.3 0.12 0.3 0.3 l0 13.4 c0 0.18 -0.12 0.3 -0.3 0.3 l-2.63 0 c-0.18 0 -0.3 -0.12 -0.3 -0.3 l0 -6.64 l-2.64 6.69 c-0.06 0.16 -0.2 0.25 -0.36 0.25 l-2.36 0 c-0.16 0 -0.31 -0.09 -0.37 -0.25 l-2.65 -6.72 l0 6.67 c0 0.18 -0.12 0.3 -0.3 0.3 l-2.63 0 c-0.18 0 -0.3 -0.12 -0.3 -0.3 l0 -13.4 c0 -0.18 0.12 -0.3 0.3 -0.3 l2.95 0 c0.16 0 0.3 0.06 0.36 0.2 l3.82 10.06 l3.81 -10.06 c0.06 -0.14 0.2 -0.2 0.36 -0.2 l2.94 0 z M88.75 19.66 c0.07 0.2 -0.02 0.34 -0.24 0.34 l-2.74 0 c-0.16 0 -0.28 -0.06 -0.34 -0.24 l-0.64 -1.94 l-5.01 0 l-0.64 1.94 c-0.05 0.18 -0.18 0.24 -0.34 0.24 l-2.74 0 c-0.22 0 -0.31 -0.14 -0.24 -0.34 l4.9 -13.42 c0.06 -0.16 0.18 -0.24 0.34 -0.24 l2.4 0 c0.16 0 0.33 0.08 0.39 0.24 z M80.69000000000001 15.09 l3.2 0 l-1.6 -4.84 z M100.79400000000001 6 c0.18 0 0.3 0.12 0.3 0.3 l0 2.24 c0 0.18 -0.12 0.3 -0.3 0.3 l-3.62 0 l0 10.86 c0 0.18 -0.12 0.3 -0.3 0.3 l-2.63 0 c-0.18 0 -0.3 -0.12 -0.3 -0.3 l0 -10.86 l-3.62 0 c-0.18 0 -0.3 -0.12 -0.3 -0.3 l0 -2.24 c0 -0.18 0.12 -0.3 0.3 -0.3 l10.47 0 z M112.90800000000002 8.84 l-3.17 0 l0 8.32 l3.17 0 c0.18 0 0.3 0.12 0.3 0.3 l0 2.24 c0 0.18 -0.12 0.3 -0.3 0.3 l-9.57 0 c-0.18 0 -0.3 -0.12 -0.3 -0.3 l0 -2.24 c0 -0.18 0.12 -0.3 0.3 -0.3 l3.17 0 l0 -8.32 l-3.17 0 c-0.18 0 -0.3 -0.12 -0.3 -0.3 l0 -2.24 c0 -0.18 0.12 -0.3 0.3 -0.3 l9.57 0 c0.18 0 0.3 0.12 0.3 0.3 l0 2.24 c0 0.18 -0.12 0.3 -0.3 0.3 z M122.71200000000002 20.26 c-3.96 0 -7.21 -3.2 -7.21 -7.2 c0 -4.02 3.25 -7.22 7.21 -7.22 c3.97 0 7.23 3.2 7.23 7.22 c0 4 -3.26 7.2 -7.23 7.2 z M122.71200000000002 17.13 c2.23 0 3.98 -1.79 3.98 -4.07 c0 -2.3 -1.75 -4.09 -3.98 -4.09 c-2.21 0 -3.96 1.79 -3.96 4.09 c0 2.28 1.75 4.07 3.96 4.07 z M143.806 6 c0.18 0 0.3 0.12 0.3 0.3 l0 13.4 c0 0.18 -0.12 0.3 -0.3 0.3 l-2.96 0 c-0.16 0 -0.28 -0.06 -0.36 -0.2 l-4.77 -8.57 l0 8.47 c0 0.18 -0.12 0.3 -0.3 0.3 l-2.63 0 c-0.18 0 -0.3 -0.12 -0.3 -0.3 l0 -13.4 c0 -0.18 0.12 -0.3 0.3 -0.3 l2.95 0 c0.16 0 0.28 0.06 0.36 0.2 l4.77 8.56 l0 -8.46 c0 -0.18 0.12 -0.3 0.3 -0.3 l2.64 0 z M164.814 18.33 c0.15 0.14 0.15 0.31 0.01 0.45 l-1.3 1.31 c-0.14 0.14 -0.3 0.17 -0.45 0.03 l-1.26 -1.4 c-1.04 0.87 -2.19 1.46 -3.56 1.46 c-2.62 0 -4.64 -1.43 -4.64 -4.1 c0 -1.75 1.12 -2.87 2.37 -3.73 c-0.8 -0.88 -1.46 -1.82 -1.46 -3.02 c0 -2.17 1.58 -3.49 3.87 -3.49 c2.19 0 3.82 1.32 3.82 3.46 c0 1.71 -1.11 2.78 -2.33 3.64 l2.02 2.21 c0.21 -0.21 0.43 -0.44 0.65 -0.67 c0.15 -0.14 0.29 -0.12 0.42 0 l1.28 1.34 c0.13 0.13 0.08 0.27 -0.03 0.4 l-0.65 0.75 z M157.314 9.41 c0 0.57 0.31 1.04 0.79 1.6 c0.77 -0.51 1.32 -1 1.32 -1.63 c0 -0.48 -0.35 -0.96 -1.03 -0.96 c-0.72 0 -1.08 0.48 -1.08 0.99 z M158.414 17.33 c0.55 0 1.08 -0.21 1.63 -0.56 l-2.19 -2.44 c-0.64 0.5 -1.08 1.01 -1.08 1.66 c0 0.74 0.49 1.34 1.64 1.34 z M186.352 19.66 c0.07 0.2 -0.02 0.34 -0.24 0.34 l-2.74 0 c-0.16 0 -0.28 -0.06 -0.34 -0.24 l-0.64 -1.94 l-5.01 0 l-0.64 1.94 c-0.05 0.18 -0.18 0.24 -0.34 0.24 l-2.74 0 c-0.22 0 -0.31 -0.14 -0.24 -0.34 l4.9 -13.42 c0.06 -0.16 0.18 -0.24 0.34 -0.24 l2.4 0 c0.16 0 0.33 0.08 0.39 0.24 z M178.292 15.09 l3.2 0 l-1.6 -4.84 z M197.99599999999998 8.84 l-3.17 0 l0 8.32 l3.17 0 c0.18 0 0.3 0.12 0.3 0.3 l0 2.24 c0 0.18 -0.12 0.3 -0.3 0.3 l-9.57 0 c-0.18 0 -0.3 -0.12 -0.3 -0.3 l0 -2.24 c0 -0.18 0.12 -0.3 0.3 -0.3 l3.17 0 l0 -8.32 l-3.17 0 c-0.18 0 -0.3 -0.12 -0.3 -0.3 l0 -2.24 c0 -0.18 0.12 -0.3 0.3 -0.3 l9.57 0 c0.18 0 0.3 0.12 0.3 0.3 l0 2.24 c0 0.18 -0.12 0.3 -0.3 0.3 z"/></g>
			</g>
		</svg>
	