<svg width="1200" height="1200" xmlns="http://www.w3.org/2000/svg" xmlns:xlink="http://www.w3.org/1999/xlink" version="1.1"><g transform="scale(12.607838537310833) translate(-2.4110558827718105, -2.410060246785484)">                        <g fill="#c82337"><path xmlns="http://www.w3.org/2000/svg" d="M92.756,22.677H7.17c3.893,9.105,9.007,17.26,15.379,24.476c0,0,0.002,0.002,0.003,0.002v-0.003  c1.039,1.173,2.122,2.343,3.245,3.486v0.001l0.003-0.001c3.675,3.741,7.72,7.203,12.16,10.41v-0.001  c1.235,0.888,2.534,1.778,3.857,2.645c0.002,0.001,0.002,0.002,0.003,0.003v-0.003c5.482,3.619,11.488,6.807,18.027,9.632  c3.327,1.435,6.834,2.755,10.458,3.998c1.398-10.04,5.724-20.903,12.936-32.674c-1.482-1.778-2.356-3.928-2.542-6.36  c-0.017-0.213-0.026-0.431-0.026-0.645c0.003-2.586,1.256-5.105,3.497-7.613c1.812-1.999,4.696-4.391,8.661-7.291  C92.805,22.719,92.78,22.698,92.756,22.677z M27.356,40.15c-0.359,0-0.7-0.177-0.903-0.479l-4.226-6.218  c-0.228-0.336-0.253-0.771-0.062-1.132c0.193-0.36,0.569-0.581,0.977-0.578l49.77,0.417c0.605,0.006,1.089,0.499,1.083,1.106  c-0.003,0.362-0.183,0.681-0.456,0.879c-0.006,0.005-0.012,0.009-0.017,0.012c-0.001,0.002-0.005,0.003-0.005,0.005  c-0.006,0.003-0.009,0.006-0.015,0.007c-0.003,0.005-0.009,0.006-0.012,0.009c-0.003,0.003-0.003,0.003-0.006,0.003  c-0.131,0.084-0.281,0.14-0.444,0.161l-45.543,5.798C27.448,40.147,27.402,40.15,27.356,40.15z M39.072,52.891  c-0.141,0.062-0.289,0.091-0.438,0.091c-0.342,0-0.682-0.161-0.896-0.461l-4.486-6.354c-0.219-0.309-0.265-0.71-0.116-1.062  c0.152-0.35,0.475-0.596,0.849-0.651l38.053-5.627c0.557-0.084,1.086,0.272,1.223,0.818c0.135,0.543-0.164,1.106-0.695,1.295  L39.072,52.891z M75.188,44.927L54.354,63.815c-0.207,0.205-0.484,0.312-0.767,0.312c-0.164,0-0.332-0.037-0.484-0.113  c-0.003,0-0.003-0.002-0.003-0.002c-0.015-0.008-0.027-0.014-0.04-0.023c-0.006-0.002-0.009-0.005-0.014-0.006  c-0.008-0.005-0.014-0.006-0.018-0.011c-0.008-0.006-0.018-0.011-0.029-0.015c-0.003-0.005-0.007-0.008-0.011-0.011  c-0.011-0.005-0.017-0.009-0.024-0.014c-0.002-0.003-0.008-0.006-0.011-0.009c-0.009-0.005-0.018-0.012-0.027-0.02  c-0.002-0.002-0.005-0.003-0.006-0.006l-7.335-5.65c-0.301-0.233-0.461-0.605-0.418-0.984c0.038-0.379,0.278-0.71,0.621-0.872  l28.199-13.267c0.491-0.233,1.078-0.07,1.38,0.382C75.668,43.959,75.59,44.562,75.188,44.927z"/></g>        </g></svg>